<svg width="216" height="74" viewBox="0 0 216 74" fill="none" xmlns="http://www.w3.org/2000/svg">
<path d="M3.348 50V12.2H22.734C27.486 12.2 30.834 13.388 33.048 15.602C34.56 17.114 35.478 19.112 35.478 21.704V21.812C35.478 26.186 32.994 28.778 29.646 30.236C34.236 31.748 37.152 34.34 37.152 39.47V39.578C37.152 46.058 31.86 50 22.842 50H3.348ZM13.554 27.266H20.142C23.328 27.266 25.11 26.186 25.11 23.972V23.864C25.11 21.812 23.49 20.624 20.358 20.624H13.554V27.266ZM13.554 41.576H21.654C24.84 41.576 26.676 40.334 26.676 38.12V38.012C26.676 35.96 25.056 34.61 21.546 34.61H13.554V41.576ZM40.2756 50L56.3676 11.93H66.4656L82.5576 50H71.3256L68.5716 43.25H53.9916L51.2916 50H40.2756ZM57.0696 35.096H65.5476L61.3356 24.35L57.0696 35.096ZM87.7913 50V12.2H98.3213V50H87.7913ZM106.591 50V12.2H124.465C130.243 12.2 134.239 13.712 136.777 16.304C138.991 18.464 140.125 21.38 140.125 25.106V25.214C140.125 30.992 137.047 34.826 132.349 36.824L141.367 50H129.271L121.657 38.552H121.549H117.067V50H106.591ZM117.067 30.344H123.979C127.543 30.344 129.595 28.616 129.595 25.862V25.754C129.595 22.784 127.435 21.272 123.925 21.272H117.067V30.344ZM146.754 50V12.2H177.156V21.11H157.122V26.834H175.266V35.096H157.122V41.09H177.426V50H146.754ZM198.971 50.648C192.275 50.648 185.903 48.542 181.259 44.384L187.091 37.418C190.817 40.388 194.975 41.954 199.349 41.954C202.157 41.954 203.669 40.982 203.669 39.362V39.254C203.669 37.688 202.427 36.824 197.297 35.636C189.251 33.8 183.041 31.532 183.041 23.756V23.648C183.041 16.628 188.603 11.552 197.675 11.552C204.101 11.552 209.123 13.28 213.227 16.574L207.989 23.972C204.533 21.542 200.753 20.246 197.405 20.246C194.867 20.246 193.625 21.326 193.625 22.676V22.784C193.625 24.512 194.921 25.268 200.159 26.456C208.853 28.346 214.253 31.154 214.253 38.228V38.336C214.253 46.058 208.151 50.648 198.971 50.648Z" fill="white"/>
<path d="M14.804 63.07H5.916V70H4.178V54.6H5.916V61.442H14.804V54.6H16.542V70H14.804V63.07ZM36.4688 62.278C36.4688 63.3487 36.2782 64.368 35.8968 65.336C35.5155 66.2893 34.9802 67.1327 34.2908 67.866C33.6015 68.5993 32.7728 69.186 31.8048 69.626C30.8368 70.0513 29.7662 70.264 28.5928 70.264C27.4195 70.264 26.3488 70.0513 25.3808 69.626C24.4275 69.2007 23.6062 68.6287 22.9168 67.91C22.2275 67.1767 21.6922 66.3333 21.3108 65.38C20.9442 64.412 20.7608 63.3927 20.7608 62.322C20.7608 61.2513 20.9515 60.2393 21.3328 59.286C21.7142 58.318 22.2495 57.4673 22.9388 56.734C23.6282 56.0007 24.4568 55.4213 25.4248 54.996C26.3928 54.556 27.4635 54.336 28.6368 54.336C29.8102 54.336 30.8735 54.5487 31.8268 54.974C32.7948 55.3993 33.6235 55.9787 34.3128 56.712C35.0022 57.4307 35.5302 58.274 35.8968 59.242C36.2782 60.1953 36.4688 61.2073 36.4688 62.278ZM34.6648 62.322C34.6648 61.442 34.5108 60.6133 34.2028 59.836C33.9095 59.0587 33.4915 58.384 32.9488 57.812C32.4062 57.24 31.7608 56.7853 31.0128 56.448C30.2795 56.1107 29.4728 55.942 28.5928 55.942C27.7128 55.942 26.8988 56.1107 26.1508 56.448C25.4175 56.7707 24.7868 57.218 24.2588 57.79C23.7308 58.362 23.3128 59.0367 23.0048 59.814C22.7115 60.5767 22.5648 61.398 22.5648 62.278C22.5648 63.158 22.7115 63.9867 23.0048 64.764C23.3128 65.5413 23.7382 66.216 24.2808 66.788C24.8235 67.36 25.4615 67.8147 26.1948 68.152C26.9428 68.4893 27.7568 68.658 28.6368 68.658C29.5168 68.658 30.3235 68.4967 31.0568 68.174C31.8048 67.8367 32.4428 67.382 32.9708 66.81C33.4988 66.238 33.9095 65.5707 34.2028 64.808C34.5108 64.0307 34.6648 63.202 34.6648 62.322ZM53.2682 54.6V63.422C53.2682 64.5513 53.1142 65.5413 52.8062 66.392C52.4982 67.2427 52.0582 67.954 51.4862 68.526C50.9289 69.098 50.2542 69.5307 49.4622 69.824C48.6849 70.1027 47.8122 70.242 46.8442 70.242C45.8909 70.242 45.0182 70.1027 44.2262 69.824C43.4489 69.5307 42.7742 69.1053 42.2022 68.548C41.6449 67.976 41.2122 67.272 40.9042 66.436C40.5962 65.6 40.4422 64.6393 40.4422 63.554V54.6H42.1802V63.444C42.1802 65.116 42.5909 66.3993 43.4122 67.294C44.2482 68.1887 45.4069 68.636 46.8882 68.636C48.3109 68.636 49.4402 68.2107 50.2762 67.36C51.1122 66.5093 51.5302 65.2407 51.5302 63.554V54.6H53.2682ZM59.2696 58.45C59.2696 58.8167 59.3283 59.1467 59.4456 59.44C59.5629 59.7333 59.7756 60.0047 60.0836 60.254C60.3916 60.4887 60.8169 60.7087 61.3596 60.914C61.9023 61.1047 62.5989 61.288 63.4496 61.464C65.1656 61.8453 66.4269 62.3733 67.2336 63.048C68.0549 63.7227 68.4656 64.654 68.4656 65.842C68.4656 66.502 68.3336 67.1033 68.0696 67.646C67.8056 68.1887 67.4389 68.6507 66.9696 69.032C66.5149 69.4133 65.9649 69.7067 65.3196 69.912C64.6743 70.1173 63.9703 70.22 63.2076 70.22C61.9756 70.22 60.8463 70.022 59.8196 69.626C58.8076 69.2153 57.8396 68.592 56.9156 67.756L57.9936 66.48C58.8003 67.2133 59.6143 67.7633 60.4356 68.13C61.2569 68.482 62.2029 68.658 63.2736 68.658C64.3149 68.658 65.1436 68.416 65.7596 67.932C66.3903 67.448 66.7056 66.81 66.7056 66.018C66.7056 65.6513 66.6469 65.3287 66.5296 65.05C66.4123 64.7567 66.2069 64.4927 65.9136 64.258C65.6203 64.0233 65.2096 63.8107 64.6816 63.62C64.1683 63.4293 63.5083 63.246 62.7016 63.07C61.8216 62.8793 61.0516 62.6593 60.3916 62.41C59.7463 62.1607 59.2109 61.86 58.7856 61.508C58.3603 61.156 58.0449 60.7453 57.8396 60.276C57.6343 59.8067 57.5316 59.2493 57.5316 58.604C57.5316 57.988 57.6563 57.4233 57.9056 56.91C58.1549 56.3967 58.5069 55.9567 58.9616 55.59C59.4163 55.2087 59.9516 54.9153 60.5676 54.71C61.1836 54.49 61.8583 54.38 62.5916 54.38C63.7209 54.38 64.7036 54.5413 65.5396 54.864C66.3903 55.172 67.2116 55.6413 68.0036 56.272L66.9916 57.614C66.2729 57.0273 65.5469 56.602 64.8136 56.338C64.0949 56.074 63.3396 55.942 62.5476 55.942C62.0489 55.942 61.5943 56.008 61.1836 56.14C60.7876 56.272 60.4429 56.448 60.1496 56.668C59.8709 56.888 59.6509 57.152 59.4896 57.46C59.3429 57.768 59.2696 58.098 59.2696 58.45ZM83.6819 54.6V56.184H74.2879V61.442H82.6919V63.026H74.2879V68.416H83.7919V70H72.5499V54.6H83.6819ZM110.01 62.278C110.01 63.3487 109.819 64.368 109.438 65.336C109.057 66.2893 108.521 67.1327 107.832 67.866C107.143 68.5993 106.314 69.186 105.346 69.626C104.378 70.0513 103.307 70.264 102.134 70.264C100.961 70.264 99.8899 70.0513 98.9219 69.626C97.9685 69.2007 97.1472 68.6287 96.4579 67.91C95.7685 67.1767 95.2332 66.3333 94.8519 65.38C94.4852 64.412 94.3019 63.3927 94.3019 62.322C94.3019 61.2513 94.4925 60.2393 94.8739 59.286C95.2552 58.318 95.7905 57.4673 96.4799 56.734C97.1692 56.0007 97.9979 55.4213 98.9659 54.996C99.9339 54.556 101.005 54.336 102.178 54.336C103.351 54.336 104.415 54.5487 105.368 54.974C106.336 55.3993 107.165 55.9787 107.854 56.712C108.543 57.4307 109.071 58.274 109.438 59.242C109.819 60.1953 110.01 61.2073 110.01 62.278ZM108.206 62.322C108.206 61.442 108.052 60.6133 107.744 59.836C107.451 59.0587 107.033 58.384 106.49 57.812C105.947 57.24 105.302 56.7853 104.554 56.448C103.821 56.1107 103.014 55.942 102.134 55.942C101.254 55.942 100.44 56.1107 99.6919 56.448C98.9585 56.7707 98.3279 57.218 97.7999 57.79C97.2719 58.362 96.8539 59.0367 96.5459 59.814C96.2525 60.5767 96.1059 61.398 96.1059 62.278C96.1059 63.158 96.2525 63.9867 96.5459 64.764C96.8539 65.5413 97.2792 66.216 97.8219 66.788C98.3645 67.36 99.0025 67.8147 99.7359 68.152C100.484 68.4893 101.298 68.658 102.178 68.658C103.058 68.658 103.865 68.4967 104.598 68.174C105.346 67.8367 105.984 67.382 106.512 66.81C107.04 66.238 107.451 65.5707 107.744 64.808C108.052 64.0307 108.206 63.202 108.206 62.322ZM125.291 54.6V56.206H115.963V61.706H124.301V63.29H115.963V70H114.225V54.6H125.291ZM149.36 57.526L143.75 65.776H143.662L138.052 57.548V70H136.358V54.6H138.118L143.728 63.004L149.338 54.6H151.098V70H149.36V57.526ZM168.592 54.6V63.422C168.592 64.5513 168.438 65.5413 168.13 66.392C167.822 67.2427 167.382 67.954 166.81 68.526C166.253 69.098 165.578 69.5307 164.786 69.824C164.009 70.1027 163.136 70.242 162.168 70.242C161.215 70.242 160.342 70.1027 159.55 69.824C158.773 69.5307 158.098 69.1053 157.526 68.548C156.969 67.976 156.536 67.272 156.228 66.436C155.92 65.6 155.766 64.6393 155.766 63.554V54.6H157.504V63.444C157.504 65.116 157.915 66.3993 158.736 67.294C159.572 68.1887 160.731 68.636 162.212 68.636C163.635 68.636 164.764 68.2107 165.6 67.36C166.436 66.5093 166.854 65.2407 166.854 63.554V54.6H168.592ZM174.593 58.45C174.593 58.8167 174.652 59.1467 174.769 59.44C174.887 59.7333 175.099 60.0047 175.407 60.254C175.715 60.4887 176.141 60.7087 176.683 60.914C177.226 61.1047 177.923 61.288 178.773 61.464C180.489 61.8453 181.751 62.3733 182.557 63.048C183.379 63.7227 183.789 64.654 183.789 65.842C183.789 66.502 183.657 67.1033 183.393 67.646C183.129 68.1887 182.763 68.6507 182.293 69.032C181.839 69.4133 181.289 69.7067 180.643 69.912C179.998 70.1173 179.294 70.22 178.531 70.22C177.299 70.22 176.17 70.022 175.143 69.626C174.131 69.2153 173.163 68.592 172.239 67.756L173.317 66.48C174.124 67.2133 174.938 67.7633 175.759 68.13C176.581 68.482 177.527 68.658 178.597 68.658C179.639 68.658 180.467 68.416 181.083 67.932C181.714 67.448 182.029 66.81 182.029 66.018C182.029 65.6513 181.971 65.3287 181.853 65.05C181.736 64.7567 181.531 64.4927 181.237 64.258C180.944 64.0233 180.533 63.8107 180.005 63.62C179.492 63.4293 178.832 63.246 178.025 63.07C177.145 62.8793 176.375 62.6593 175.715 62.41C175.07 62.1607 174.535 61.86 174.109 61.508C173.684 61.156 173.369 60.7453 173.163 60.276C172.958 59.8067 172.855 59.2493 172.855 58.604C172.855 57.988 172.98 57.4233 173.229 56.91C173.479 56.3967 173.831 55.9567 174.285 55.59C174.74 55.2087 175.275 54.9153 175.891 54.71C176.507 54.49 177.182 54.38 177.915 54.38C179.045 54.38 180.027 54.5413 180.863 54.864C181.714 55.172 182.535 55.6413 183.327 56.272L182.315 57.614C181.597 57.0273 180.871 56.602 180.137 56.338C179.419 56.074 178.663 55.942 177.871 55.942C177.373 55.942 176.918 56.008 176.507 56.14C176.111 56.272 175.767 56.448 175.473 56.668C175.195 56.888 174.975 57.152 174.813 57.46C174.667 57.768 174.593 58.098 174.593 58.45ZM188.028 54.6H189.766V70H188.028V54.6ZM208.026 67.558C207.63 67.9687 207.212 68.3427 206.772 68.68C206.347 69.0027 205.885 69.2813 205.386 69.516C204.887 69.7507 204.352 69.934 203.78 70.066C203.208 70.198 202.57 70.264 201.866 70.264C200.751 70.264 199.725 70.0587 198.786 69.648C197.847 69.2373 197.033 68.68 196.344 67.976C195.655 67.2573 195.112 66.414 194.716 65.446C194.335 64.478 194.144 63.4367 194.144 62.322C194.144 61.222 194.335 60.188 194.716 59.22C195.112 58.252 195.655 57.4087 196.344 56.69C197.033 55.9567 197.855 55.3847 198.808 54.974C199.761 54.5487 200.803 54.336 201.932 54.336C202.636 54.336 203.267 54.3947 203.824 54.512C204.396 54.6293 204.924 54.798 205.408 55.018C205.892 55.2233 206.339 55.48 206.75 55.788C207.161 56.0813 207.557 56.4113 207.938 56.778L206.75 58.054C206.09 57.438 205.379 56.932 204.616 56.536C203.868 56.14 202.966 55.942 201.91 55.942C201.059 55.942 200.267 56.1033 199.534 56.426C198.815 56.7487 198.185 57.196 197.642 57.768C197.114 58.34 196.696 59.0147 196.388 59.792C196.095 60.5547 195.948 61.3833 195.948 62.278C195.948 63.1727 196.095 64.0087 196.388 64.786C196.696 65.5633 197.114 66.238 197.642 66.81C198.185 67.382 198.815 67.8367 199.534 68.174C200.267 68.4967 201.059 68.658 201.91 68.658C202.966 68.658 203.875 68.4673 204.638 68.086C205.401 67.69 206.149 67.14 206.882 66.436L208.026 67.558Z" fill="white"/>
</svg>
